<svg xmlns="http://www.w3.org/2000/svg" viewBox="0 0 24 24">
<path fill="#2D98D4" d="M21 1H3c-1.103 0-2 .897-2 2v18c0 1.103.897 2 2 2h18c1.103 0 2-.897 2-2V3c0-1.103-.897-2-2-2z"/><path fill="#FFF" d="M21 1H3c-1.103 0-2 .897-2 2v.25c0-1.103.897-2 2-2h18c1.103 0 2 .897 2 2V3c0-1.103-.897-2-2-2z" opacity=".2"/><path fill="#010101" d="M21 22.75H3c-1.103 0-2-.897-2-2V21c0 1.103.897 2 2 2h18c1.103 0 2-.897 2-2v-.25c0 1.103-.897 2-2 2z" opacity=".1"/><linearGradient id="a" x1="9.505" x2="19.134" y1="12.28" y2="21.91" gradientUnits="userSpaceOnUse"><stop offset="0" stop-color="#010101" stop-opacity=".1"/><stop offset="1" stop-color="#010101" stop-opacity="0"/></linearGradient><path fill="url(#a)" d="M14.475 6.025l-.001.001A3.49 3.49 0 0 1 15.5 8.5c0 1.93-1.57 3.5-3.5 3.5a3.49 3.49 0 0 1-2.474-1.026l2.043 2.045c.144-.007.285-.019.431-.019 2.161 0 4.116.778 5.375 1.431A3.001 3.001 0 0 1 19 17.105V19H5l4 4h12c1.103 0 2-.897 2-2v-6.45l-8.525-8.525z"/><circle cx="12" cy="8.5" r="3.5" fill="#FFF"/><path fill="#FFF" d="M12 5.25c1.475 0 2.759.886 3.324 2.154C14.862 6.01 13.546 5 12 5S9.14 6.005 8.678 7.398A3.639 3.639 0 0 1 12 5.25z" opacity=".2"/><path fill="#010101" d="M12 11.75a3.646 3.646 0 0 1-3.324-2.154C9.138 10.99 10.454 12 12 12s2.86-1.005 3.322-2.398A3.639 3.639 0 0 1 12 11.75z" opacity=".1"/><path fill="#FFF" d="M17.375 14.431C16.115 13.778 14.16 13 12 13s-4.116.778-5.375 1.431A3.001 3.001 0 0 0 5 17.105V19h14v-1.895c0-1.13-.623-2.154-1.625-2.674z"/><path fill="#010101" d="M5 18.75h14V19H5z" opacity=".1"/><path fill="#FFF" d="M17.375 14.431C16.115 13.778 14.16 13 12 13s-4.116.778-5.375 1.431A3.001 3.001 0 0 0 5 17.105v.25c0-1.13.623-2.154 1.625-2.674C7.885 14.028 9.84 13.25 12 13.25s4.116.778 5.375 1.431A3.001 3.001 0 0 1 19 17.355v-.25c0-1.13-.623-2.154-1.625-2.674z" opacity=".2"/><linearGradient id="b" x1="-.652" x2="24.652" y1="6.1" y2="17.9" gradientUnits="userSpaceOnUse"><stop offset="0" stop-color="#FFF" stop-opacity=".2"/><stop offset="1" stop-color="#FFF" stop-opacity="0"/></linearGradient><path fill="url(#b)" d="M21 1H3c-1.103 0-2 .897-2 2v18c0 1.103.897 2 2 2h18c1.103 0 2-.897 2-2V3c0-1.103-.897-2-2-2z"/></svg>